<svg xmlns="http://www.w3.org/2000/svg" viewBox="0 0 55.2 55.2">
  <defs>
    <style>
      .cls-1, .cls-4 {
        fill: #fff;
      }

      .cls-2 {
        fill: #c5ffb3;
        stroke: #1bb231;
        stroke-miterlimit: 10;
      }

      .cls-3 {
        fill: #34c000;
      }

      .cls-4 {
        fill-rule: evenodd;
      }
    </style>
  </defs>
  <title>logo</title>
  <g id="Layer_2" data-name="Layer 2">
    <g id="Layer_1-2" data-name="Layer 1">
      <circle class="cls-1" cx="27.6" cy="27.6" r="27.6"/>
      <line class="cls-2" x1="22.16" y1="19.15" x2="46.44" y2="23.07"/>
      <line class="cls-2" x1="22.16" y1="19.15" x2="42.53" y2="35.37"/>
      <circle class="cls-3" cx="46.44" cy="23.07" r="3.92"/>
      <circle class="cls-3" cx="42.53" cy="35.37" r="6.16"/>
      <line class="cls-2" x1="22.16" y1="19.15" x2="26.66" y2="44.37"/>
      <circle class="cls-3" cx="26.66" cy="44.37" r="8.33"/>
      <circle class="cls-3" cx="22.16" cy="19.15" r="10.9"/>
      <g id="fa-user">
        <path class="cls-4" d="M22.16,19.15a3.48,3.48,0,0,0,3.48-3.48,3.48,3.48,0,0,0-5.94-2.46,3.48,3.48,0,0,0,0,4.92A3.35,3.35,0,0,0,22.16,19.15Zm6.35,3.68a9.25,9.25,0,0,0-.13-1,7.7,7.7,0,0,0-.24-1,4.67,4.67,0,0,0-.39-.88,3.19,3.19,0,0,0-.56-.73,2.37,2.37,0,0,0-.77-.48,2.72,2.72,0,0,0-1-.18,1.11,1.11,0,0,0-.38.19l-.68.44a4.28,4.28,0,0,1-1,.44,3.85,3.85,0,0,1-2.42,0,4.27,4.27,0,0,1-1-.44l-.68-.44a1.11,1.11,0,0,0-.38-.19,2.72,2.72,0,0,0-1,.18,2.37,2.37,0,0,0-.77.48,3.19,3.19,0,0,0-.56.73,4.65,4.65,0,0,0-.39.88,7.67,7.67,0,0,0-.24,1,9.2,9.2,0,0,0-.13,1q0,.46,0,.94a2.26,2.26,0,0,0,.66,1.72,2.44,2.44,0,0,0,1.76.63h7.92a2.44,2.44,0,0,0,1.76-.63,2.26,2.26,0,0,0,.66-1.72Q28.54,23.28,28.5,22.83Z"/>
      </g>
      <g id="fa-user-2" data-name="fa-user">
        <path class="cls-4" d="M26.66,44.62a2.12,2.12,0,1,0-1.5-.62A2,2,0,0,0,26.66,44.62Zm3.86,2.24a5.63,5.63,0,0,0-.08-.6,4.69,4.69,0,0,0-.15-.6,2.84,2.84,0,0,0-.24-.54,1.94,1.94,0,0,0-.34-.45,1.44,1.44,0,0,0-.47-.29,1.66,1.66,0,0,0-.61-.11.67.67,0,0,0-.23.12l-.41.26a2.61,2.61,0,0,1-.6.26,2.35,2.35,0,0,1-1.47,0,2.6,2.6,0,0,1-.6-.26l-.41-.26a.67.67,0,0,0-.23-.12,1.66,1.66,0,0,0-.61.11,1.44,1.44,0,0,0-.47.29,1.94,1.94,0,0,0-.34.45,2.83,2.83,0,0,0-.24.54,4.67,4.67,0,0,0-.15.6,5.6,5.6,0,0,0-.08.6q0,.28,0,.57a1.37,1.37,0,0,0,.4,1,1.49,1.49,0,0,0,1.07.38h4.82a1.49,1.49,0,0,0,1.07-.38,1.37,1.37,0,0,0,.4-1Q30.54,47.13,30.52,46.85Z"/>
      </g>
      <g id="fa-user-3" data-name="fa-user">
        <path class="cls-4" d="M42.53,34.74a1.49,1.49,0,1,0-1.05-.44A1.44,1.44,0,0,0,42.53,34.74Zm2.72,1.57a4,4,0,0,0-.05-.42,3.3,3.3,0,0,0-.1-.42,2,2,0,0,0-.17-.38,1.37,1.37,0,0,0-.24-.31,1,1,0,0,0-.33-.21,1.17,1.17,0,0,0-.43-.08.48.48,0,0,0-.16.08l-.29.19a1.83,1.83,0,0,1-.42.19,1.65,1.65,0,0,1-1,0,1.83,1.83,0,0,1-.42-.19l-.29-.19a.48.48,0,0,0-.16-.08,1.17,1.17,0,0,0-.43.08,1,1,0,0,0-.33.21,1.37,1.37,0,0,0-.24.31,2,2,0,0,0-.17.38,3.28,3.28,0,0,0-.1.42,3.94,3.94,0,0,0-.05.42q0,.2,0,.4a1,1,0,0,0,.28.74,1,1,0,0,0,.75.27h3.39a1,1,0,0,0,.75-.27,1,1,0,0,0,.28-.74Q45.26,36.51,45.25,36.32Z"/>
      </g>
      <g id="fa-user-4" data-name="fa-user">
        <path class="cls-4" d="M46.44,22.74a1,1,0,1,0-.68-.28A.93.93,0,0,0,46.44,22.74Zm1.77,1a2.56,2.56,0,0,0,0-.27,2.14,2.14,0,0,0-.07-.27A1.3,1.3,0,0,0,48,23a.89.89,0,0,0-.16-.2.66.66,0,0,0-.22-.13.76.76,0,0,0-.28-.05l-.11.05-.19.12a1.19,1.19,0,0,1-.27.12,1.07,1.07,0,0,1-.67,0,1.19,1.19,0,0,1-.27-.12l-.19-.12-.11-.05a.76.76,0,0,0-.28.05.66.66,0,0,0-.22.13.89.89,0,0,0-.16.2,1.3,1.3,0,0,0-.11.25,2.14,2.14,0,0,0-.07.27,2.56,2.56,0,0,0,0,.27q0,.13,0,.26a.63.63,0,0,0,.18.48.68.68,0,0,0,.49.18h2.2A.68.68,0,0,0,48,24.5a.63.63,0,0,0,.18-.48Q48.22,23.89,48.21,23.76Z"/>
      </g>
    </g>
  </g>
</svg>
